<svg width="16" height="16" viewBox="0 0 16 16" fill="none" xmlns="http://www.w3.org/2000/svg">
<path d="M6.9045 5.10242C5.88747 1.53795 0.752585 3.00249 1.0235 6.6993C1.13102 8.16642 1.60847 9.71915 2.47705 11.1859C3.40108 12.7463 4.63285 13.9816 5.97613 14.8101C7.57607 15.7968 8.489 13.3683 8.01575 11.5491C7.47208 9.45928 7.46378 7.06256 6.9045 5.10242Z" fill="#FF7733"/>
<path d="M9.09393 10.8994C10.1105 14.464 15.2474 12.9975 14.9765 9.30071C14.869 7.83358 14.3915 6.28085 13.523 4.81407C12.5989 3.25367 11.3671 2.01838 10.0239 1.18995C8.42393 0.203219 7.51222 2.63075 7.98513 4.45004C8.52861 6.54085 8.53478 8.93873 9.09393 10.8994Z" fill="#FFBD5C"/>
</svg>
